<?xml version="1.0" standalone="no"?><!DOCTYPE svg PUBLIC "-//W3C//DTD SVG 1.1//EN" "http://www.w3.org/Graphics/SVG/1.1/DTD/svg11.dtd"><svg t="1766069257010" class="icon" viewBox="0 0 1024 1024" version="1.1" xmlns="http://www.w3.org/2000/svg" p-id="3270" xmlns:xlink="http://www.w3.org/1999/xlink" width="128" height="128"><path d="M861.12 562.176a34.88 34.88 0 0 1 0 69.824l-616.256 0.032 114.528 119.136a34.88 34.88 0 0 1-45.472 52.608l-4.768-4.128-171.136-178.08-0.832-0.864-0.96-1.12-2.144-2.88a34.88 34.88 0 0 1 28.8-54.496h698.24zM710.08 198.528l4.768 4.096 171.136 178.08 0.832 0.864 0.96 1.12 2.144 2.912a34.88 34.88 0 0 1-28.8 54.496H162.88a34.88 34.88 0 0 1 0-69.824l616.256-0.032-114.528-119.104a34.88 34.88 0 0 1 45.472-52.608z" p-id="3271"></path></svg>