<?xml version="1.0" standalone="no"?><!DOCTYPE svg PUBLIC "-//W3C//DTD SVG 1.1//EN" "http://www.w3.org/Graphics/SVG/1.1/DTD/svg11.dtd"><svg t="1766067557635" class="icon" viewBox="0 0 1024 1024" version="1.1" xmlns="http://www.w3.org/2000/svg" p-id="2580" xmlns:xlink="http://www.w3.org/1999/xlink" width="128" height="128"><path d="M357.18 285.44q-5.94-11.89-17.24-19.02-11.3-7.13-24.37-7.72-13.07-0.6-24.36 7.13-11.29 7.72-16.04 20.8L1.78 918.98q-3.56 8.32 0 17.23 3.56 8.92 11.88 13.08t17.24 0.59q8.91-3.57 12.48-13.07l89.15-206.82h366.1l89.14 206.82q3.57 7.13 8.92 10.7 5.35 3.56 11.29 3.56 5.94 0 10.7-2.38 8.32-3.56 11.89-12.48 3.56-8.91 0-17.23L357.18 285.44zM152.74 683.63l161.65-379.17 164.03 379.17H152.74z m847.49-121.24q-9.51 0-16.05 6.53-6.54 6.54-6.54 16.05v47.55q-27.33-33.28-65.97-51.7-38.63-18.43-82.6-18.43-52.3 0-97.47 26.15t-71.32 70.73q-26.15 44.57-26.15 97.46 0 52.89 26.15 97.46 26.15 44.58 71.32 70.73 45.17 26.15 97.47 26.15 43.97 0 82.6-19.02 38.63-19.02 65.97-51.11v47.55q0 9.5 6.54 16.04 6.54 6.54 16.05 6.54 9.51 0 16.64-6.54 7.13-6.54 7.13-16.04V584.97q0-9.51-7.13-16.05-7.13-6.53-16.64-6.53zM829.07 904.71q-40.42 0-74.3-19.61-33.88-19.61-54.08-54.08-20.2-34.47-20.2-74.88t20.2-74.29q20.21-33.88 54.08-54.08 33.88-20.21 74.29-20.21 40.41 0 74.29 20.21 33.88 20.21 54.08 54.08 20.21 33.88 20.21 74.29 0 40.41-20.21 74.88-20.2 34.47-54.08 54.08-33.88 19.61-74.28 19.61zM553.3 149.94h385.12l-73.7 61.8q-7.13 7.14-7.73 16.64-0.6 9.5 5.95 17.24 6.54 7.73 16.05 7.73 9.51 0 15.45-5.95l121.24-102.22 2.38-4.75q3.56-2.38 4.75-4.76v-9.51q0-4.75-3.56-10.69l-1.19-2.38L894.44 6.11Q887.31-1.02 877.8 0.17q-9.51 1.19-15.45 8.32-5.95 7.13-5.35 16.64 0.6 9.51 7.73 15.45l73.7 64.19H553.31q-9.5 0-16.04 6.54-6.54 6.53-6.54 16.05 0 9.51 6.54 16.05 6.54 6.54 16.04 6.54z" p-id="2581"></path></svg>